<svg width="277px" height="85px" viewBox="0 0 277 85" version="1.1" xmlns="http://www.w3.org/2000/svg" xmlns:xlink="http://www.w3.org/1999/xlink">
    <g stroke="none" stroke-width="1" fill="none" fill-rule="evenodd">
        <g id="fromscratch-logo-white" fill="#FFFFFF">
            <g>
                <path d="M103.182915,15.953082 C97.9022343,15.953082 94.2717662,18.5934225 94.2717662,22.7519586 L94.2717662,25.8543586 L92.8525832,25.8543586 L92.8525832,29.9798906 L94.2717662,29.9798906 L94.2717662,41.4653714 L98.7933492,41.4653714 L98.7933492,30.0128948 L102.2918,30.0128948 L102.2918,25.8543586 L98.7933492,25.8543586 L98.7933492,23.3460352 C98.7933492,21.1677544 100.245536,20.078614 103.182915,20.078614 L103.182915,15.953082 Z M114.734405,21.893848 C112.853162,21.893848 111.499987,22.3559076 110.344839,23.1150054 L110.344839,22.1248778 L105.823256,22.1248778 L105.823256,41.4653714 L110.344839,41.4653714 L110.344839,29.7488608 C110.344839,27.1745289 111.797026,25.9203671 114.734405,25.9203671 L114.734405,21.893848 Z M124.0086,41.7624097 C129.12426,41.7624097 131.566575,39.4191076 131.566575,34.171431 L131.566575,29.4848267 C131.566575,24.2371501 129.12426,21.893848 124.0086,21.893848 C118.892941,21.893848 116.450626,24.3691671 116.450626,29.4848267 L116.450626,34.171431 C116.450626,39.4191076 118.892941,41.7624097 124.0086,41.7624097 Z M124.0086,37.7358906 C121.632294,37.7358906 121.005213,36.3497118 121.005213,33.9404012 L121.005213,29.7158565 C121.005213,27.3065459 121.632294,25.9203671 124.0086,25.9203671 C126.384907,25.9203671 127.011987,27.3065459 127.011987,29.7158565 L127.011987,33.9404012 C127.011987,36.3497118 126.384907,37.7358906 124.0086,37.7358906 Z M136.253179,41.4323671 L140.774762,41.4323671 L140.774762,29.2868012 C140.774762,26.7784778 142.160941,25.9203671 143.910166,25.9203671 C145.791409,25.9203671 146.814541,26.9434991 146.814541,29.4518225 L146.814541,41.4323671 L151.336124,41.4323671 L151.336124,29.0227671 C151.402132,26.6464608 152.689298,25.9203671 154.405519,25.9203671 C156.286762,25.9203671 157.309894,26.9434991 157.309894,29.4518225 L157.309894,41.4323671 L161.831477,41.4323671 L161.831477,28.5277033 C161.831477,24.1711416 159.422166,21.893848 155.395647,21.893848 C153.085349,21.893848 151.402132,22.4219161 149.916941,23.8741033 C148.794796,22.5539331 147.078575,21.893848 144.900294,21.893848 C142.556992,21.893848 140.873775,22.4219161 139.355579,23.9401118 C138.497468,22.2238906 136.18717,21.893848 133.843868,21.893848 L133.843868,26.2174054 C135.362064,26.3164182 136.220175,26.5804523 136.220175,27.9996352 L136.253179,41.4323671 Z M179.422745,34.8975246 C179.422745,27.3395501 168.960396,32.0261544 168.960396,27.966631 C168.960396,26.5804523 170.148549,25.9203671 171.86477,25.9203671 C173.845026,25.9203671 174.835153,26.811482 174.835153,28.5607076 L179.422745,28.5607076 C179.422745,24.6662054 176.452362,21.893848 171.798762,21.893848 C167.640226,21.893848 164.372805,24.1381374 164.372805,28.5277033 C164.372805,36.4157203 174.835153,31.9601459 174.835153,35.590614 C174.835153,36.5477374 174.076056,37.4718565 172.260822,37.4718565 C170.082541,37.4718565 169.125417,36.6137459 169.026405,35.2605714 L164.438813,35.2605714 C164.438813,39.0230565 167.277179,41.5313799 171.897775,41.5313799 C176.089315,41.5313799 179.422745,39.1550735 179.422745,34.8975246 Z M197.080022,29.4848267 C197.080022,24.2371501 194.637707,21.893848 189.522047,21.893848 C184.406387,21.893848 181.964073,24.4681799 181.964073,29.4848267 L181.964073,34.171431 C181.964073,39.4191076 184.406387,41.7624097 189.522047,41.7624097 C194.637707,41.7624097 197.080022,39.4191076 197.080022,34.171431 L192.690456,34.171431 C192.657451,36.3827161 191.898353,37.7358906 189.522047,37.7358906 C187.145741,37.7358906 186.51866,36.3497118 186.51866,33.9404012 L186.51866,29.7158565 C186.51866,27.3065459 187.145741,25.9203671 189.654064,25.9203671 C191.898353,25.9203671 192.690456,27.2735416 192.690456,29.4848267 L197.080022,29.4848267 Z M208.961553,21.893848 C207.080311,21.893848 205.727136,22.3559076 204.571987,23.1150054 L204.571987,22.1248778 L200.050405,22.1248778 L200.050405,41.4653714 L204.571987,41.4653714 L204.571987,29.7488608 C204.571987,27.1745289 206.024175,25.9203671 208.961553,25.9203671 L208.961553,21.893848 Z M221.899222,39.1880778 C222.823341,41.2673459 225.034626,41.5313799 227.377928,41.5313799 L227.377928,37.2078225 C225.859732,37.1088097 225.397673,36.8447757 225.397673,35.4255927 L225.397673,22.1908863 L218.202745,22.1908863 C214.374251,22.1908863 210.677775,24.4351757 210.677775,28.7917374 L210.677775,34.8975246 C210.677775,39.2540863 213.087085,41.5313799 217.146609,41.5313799 C219.687936,41.5313799 220.942098,40.244214 221.899222,39.1880778 Z M218.004719,37.5048608 C216.123477,37.5048608 215.199358,36.4157203 215.199358,33.6763671 L215.199358,29.385814 C215.199358,27.3725544 216.189485,26.2174054 218.202745,26.2174054 L220.87609,26.2174054 L220.87609,33.5773544 C220.87609,36.0526735 220.315017,37.5048608 218.004719,37.5048608 Z M231.206422,21.893848 L229.523205,21.893848 L229.523205,26.0193799 L231.206422,26.0193799 L231.206422,34.303448 C231.206422,39.8811671 232.757622,41.4323671 238.005298,41.4323671 L238.005298,37.0758054 C236.124056,37.0758054 235.728005,36.3827161 235.728005,34.2374395 L235.728005,26.0193799 L239.02843,26.0193799 L239.02843,21.893848 L235.728005,21.893848 L235.728005,18.7584437 L231.206422,18.7584437 L231.206422,21.893848 Z M256.619698,29.4848267 C256.619698,24.2371501 254.177383,21.893848 249.061724,21.893848 C243.946064,21.893848 241.503749,24.4681799 241.503749,29.4848267 L241.503749,34.171431 C241.503749,39.4191076 243.946064,41.7624097 249.061724,41.7624097 C254.177383,41.7624097 256.619698,39.4191076 256.619698,34.171431 L252.230132,34.171431 C252.197128,36.3827161 251.43803,37.7358906 249.061724,37.7358906 C246.685417,37.7358906 246.058336,36.3497118 246.058336,33.9404012 L246.058336,29.7158565 C246.058336,27.3065459 246.685417,25.9203671 249.193741,25.9203671 C251.43803,25.9203671 252.230132,27.2735416 252.230132,29.4848267 L256.619698,29.4848267 Z M259.42506,41.4323671 L263.946643,41.4323671 L263.946643,29.0227671 C263.946643,27.2405374 264.408702,25.8873629 266.95003,25.8873629 C269.491358,25.8873629 269.953417,27.2405374 269.953417,29.0227671 L269.953417,41.4323671 L274.475,41.4323671 L274.475,28.4616948 C274.475,24.0391246 272.527749,21.8278395 267.511102,21.8278395 C266.091919,21.8278395 264.969775,22.025865 263.979647,22.4549203 L263.979647,16.0190906 L259.42506,16.0190906 L259.42506,41.4323671 Z" id="fromscratch"></path>
                <path d="M104.746077,60.8329953 C104.746077,64.3314463 103.458911,65.0905442 100.653549,65.0905442 C97.8481872,65.0905442 96.5610213,64.2324336 96.5610213,60.7339825 L96.5610213,55.2552761 C96.5610213,51.7568251 97.8481872,51.1297442 100.653549,51.1297442 C103.458911,51.1297442 104.746077,51.9878548 104.746077,55.4863059 L107.881481,55.4863059 C107.881481,50.3706463 105.109123,48.2253697 100.653549,48.2253697 C96.1979745,48.2253697 93.425617,50.1396165 93.425617,55.2552761 L93.425617,60.7339825 C93.425617,65.9816591 95.4388766,68.0939314 100.653549,68.0939314 C105.868221,68.0939314 107.881481,66.0806719 107.881481,60.8329953 L104.746077,60.8329953 Z M117.749753,65.0905442 C114.944391,65.0905442 113.657226,64.2324336 113.657226,60.7339825 L113.657226,55.2222719 C113.657226,51.7238208 114.944391,51.1957527 117.749753,51.1957527 C120.555115,51.1957527 121.842281,51.7238208 121.842281,55.2222719 L121.842281,60.7339825 C121.842281,64.2324336 120.555115,65.0905442 117.749753,65.0905442 Z M117.749753,68.0939314 C122.964426,68.0939314 124.977685,65.9816591 124.977685,60.7339825 L124.977685,55.2222719 C124.977685,50.1066123 122.205328,48.2913783 117.749753,48.2913783 C113.294179,48.2913783 110.521821,50.1066123 110.521821,55.2222719 L110.521821,60.7339825 C110.521821,65.9816591 112.535081,68.0939314 117.749753,68.0939314 Z M137.354281,48.2253697 C134.845957,48.2253697 133.063728,48.8194463 131.743557,50.5686719 C131.050468,48.7204336 129.763302,48.2913783 127.287983,48.2913783 L127.287983,51.3277697 C129.169226,51.4597868 129.532272,51.624808 129.532272,53.5390548 L129.532272,67.7638889 L132.700681,67.7638889 L132.700681,55.1892676 C132.700681,52.2518889 133.888834,51.1627485 136.892221,51.1627485 C139.697583,51.1627485 140.720715,51.6908165 140.720715,55.1562634 L140.720715,67.7638889 L143.889123,67.7638889 L143.889123,56.146391 C143.889123,52.0538634 145.077277,51.1627485 148.080664,51.1627485 C150.91903,51.1627485 151.909157,51.6908165 151.909157,55.2222719 L151.909157,67.7638889 L155.077566,67.7638889 L155.077566,54.8592251 C155.077566,49.6445527 152.767268,48.2253697 148.542723,48.2253697 C145.80337,48.2253697 143.889123,48.9184591 142.766979,50.5356676 C141.677838,49.0174719 139.862604,48.2253697 137.354281,48.2253697 Z M162.602536,55.5853187 C162.602536,52.0538634 163.790689,51.1627485 166.794077,51.1627485 C169.368409,51.1627485 170.655574,51.9878548 170.655574,55.1562634 L170.655574,60.0408931 C170.655574,63.5393442 169.368409,64.7274974 166.563047,64.7274974 C163.757685,64.7274974 162.602536,63.8693868 162.602536,60.3709357 L162.602536,55.5853187 Z M162.602536,73.7046548 L162.602536,67.0707995 C163.625668,67.5328591 164.912834,67.7308846 166.563047,67.7308846 C171.777719,67.7308846 173.790979,65.2885697 173.790979,60.0408931 L173.790979,55.1892676 C173.790979,49.9745953 171.117634,48.2253697 167.256136,48.2253697 C164.747813,48.2253697 162.965583,48.8194463 161.645413,50.5686719 C160.952323,48.7204336 159.665157,48.2913783 157.189838,48.2913783 L157.189838,51.3277697 C159.071081,51.4597868 159.434128,51.624808 159.434128,53.5390548 L159.434128,73.7046548 L162.602536,73.7046548 Z M187.982809,65.5195995 C188.543881,67.4338463 190.293106,67.8629017 192.405379,67.8629017 L192.405379,64.2984421 C190.821174,64.1994293 190.425123,63.9353953 190.425123,62.3841953 L190.425123,48.6544251 L183.72526,48.6544251 C179.665736,48.6544251 176.761362,50.6016761 176.761362,55.0572506 L176.761362,61.2290463 C176.761362,65.585608 178.543591,67.8629017 182.999166,67.8629017 C185.804528,67.8629017 186.992681,66.740757 187.982809,65.5195995 Z M187.289719,59.8758719 C187.289719,63.8693868 185.705515,64.9255229 182.999166,64.9255229 C180.754877,64.9255229 179.92977,63.902391 179.92977,60.8659995 L179.92977,55.6843314 C179.92977,52.8129612 180.853889,51.624808 183.593243,51.624808 L187.289719,51.624808 L187.289719,59.8758719 Z M207.686349,67.7638889 L210.854757,67.7638889 L210.854757,54.8592251 C210.854757,49.6445527 209.006519,48.2253697 204.319915,48.2253697 C201.811591,48.2253697 200.029362,48.8194463 198.709191,50.5686719 C198.016102,48.7204336 196.728936,48.2913783 194.253617,48.2913783 L194.253617,51.3277697 C196.13486,51.4597868 196.497906,51.624808 196.497906,53.5390548 L196.497906,67.7638889 L199.666315,67.7638889 L199.666315,55.1892676 C199.666315,52.2518889 200.854468,51.1627485 203.857855,51.1627485 C206.696221,51.1627485 207.686349,52.1198719 207.686349,55.2222719 L207.686349,67.7638889 Z M228.115983,48.522408 L224.980579,48.522408 L224.980579,58.4236846 C224.980579,61.9221357 223.693413,62.7802463 220.888051,62.7802463 C218.082689,62.7802463 216.795523,61.9221357 216.795523,58.4236846 L216.762519,48.522408 L213.660119,48.522408 L213.660119,58.4236846 C213.660119,63.6713612 215.673379,65.7836336 220.888051,65.7836336 C222.571268,65.7836336 223.924443,65.5526038 224.980579,65.0905442 L224.980579,66.4437187 C224.980579,69.9421697 223.957447,70.8002804 220.888051,70.8002804 L216.399472,70.8002804 L216.399472,73.8036676 L220.888051,73.8036676 C226.102723,73.8036676 228.115983,72.1864591 228.115983,66.4437187 L228.115983,48.522408 Z" id="company" opacity="0.599521922"></path>
                <path d="M39.8819876,43.6590375 L36.3100775,43.6590375 L36.3100775,55.2371196 L31.7586409,55.2371196 L31.7586409,43.6256713 L30.3300878,43.6256713 L30.3300878,39.4548924 L31.7586409,39.4548924 L31.7586409,36.3184667 C31.7586409,32.1143216 35.413079,29.4450231 40.7286254,29.4450231 L40.7286254,33.615802 C37.7718527,33.615802 36.3100775,34.7168876 36.3100775,36.9190589 L36.3100775,39.4548924 L40.2209593,39.4548924 C41.2846454,36.8009071 43.9798207,35.4509447 47.208696,35.4509447 C51.8930212,35.4509447 54.8830161,38.2537081 54.8830161,42.1909233 L50.2651352,42.1909233 C50.2651352,40.4225131 49.2684702,39.5216249 47.2751403,39.5216249 C45.5475878,39.5216249 44.3515898,40.1889495 44.3515898,41.5903312 C44.3515898,45.6943776 54.8830161,40.9563728 54.8830161,48.5972397 C54.8830161,52.9014834 51.5275774,55.3038521 47.3083625,55.3038521 C42.6572594,55.3038521 39.8001533,52.7680185 39.8001533,48.9642682 L44.4180342,48.9642682 C44.5177007,50.3322837 45.4811434,51.1998057 47.6738063,51.1998057 C49.5010254,51.1998057 50.2651352,50.2655512 50.2651352,49.2979305 C50.2651352,45.8851812 41.1597923,49.5402008 39.8819876,43.6590375 Z M80.7923445,43.7308459 C80.0646102,43.5146778 78.1244508,43.4573378 76.8042974,43.7141364 C75.4839694,43.970935 74.6612524,43.8975891 73.8263135,43.6703399 C72.8543132,43.4056263 70.6218728,42.3652403 71.2031175,41.5360974 C71.7845367,40.7071305 73.8406307,39.7495884 71.627571,38.6998802 C70.687348,38.1352751 69.8054415,37.5224763 70.0147873,36.1755149 C70.1913083,35.0408521 70.9981366,33.9964206 71.8225996,33.5522998 C73.0559766,32.7718783 75.2524493,33.2879379 76.4294304,31.6548045 C77.0520553,30.9032289 74.7794569,30.0668746 73.0655796,31.2527212 C71.3515278,32.4385678 70.6704117,32.3870322 69.2713389,32.2683068 C68.5708422,32.2086803 67.9564235,31.7079231 67.8670281,31.0400709 C67.7725693,30.3358095 68.078993,29.8033922 68.8067273,29.5022695 C69.0616439,29.3967358 69.4785896,29.1742357 69.576715,28.6483262 C69.6748404,28.1225927 69.0799769,27.7627229 68.3330365,27.6884976 C67.5860961,27.6144481 67.078882,27.7352841 66.4593999,27.6264086 C65.186214,27.4028531 64.4932251,25.4988499 65.2069914,24.4064006 C66.1835313,22.9113403 67.0516444,21.2597385 70.3088143,19.0449386 C73.5659843,16.8301387 73.7833618,14.8643983 72.8675828,14.8045959 C71.4342883,14.7110228 69.4008924,17.5143487 67.8240764,19.2180138 C66.2472605,20.9216789 64.8722825,21.6540826 63.6427467,22.2628359 C62.4133855,22.8717652 61.2091667,22.2575593 61.0975971,20.9426098 C61.0642484,20.549321 61.0743752,20.137212 60.953901,19.7688995 C60.5380029,18.4980983 59.9134573,18.2235349 58.5402254,18.6196379 C56.7048263,19.1796699 56.209485,18.8409068 55.6677001,17.7665741 C54.9488703,16.3411661 55.2376594,15.1609479 55.7763015,13.8046645 C56.0385513,13.1441996 56.7008105,12.2506812 56.019869,11.5142321 C55.4014345,10.8453246 54.3904984,11.2676351 54.0596306,11.8392758 C53.6063681,12.6226874 53.734874,13.4922848 53.5875112,14.3840443 C53.3692608,15.704974 52.6574151,16.7140517 51.3466901,17.3694158 C50.2137082,17.9359557 48.701669,17.6515424 47.8669046,16.7015636 C45.3545799,13.9460796 45.3406118,10.388012 45.3931665,9.22503106 C45.4963554,6.94356911 46.6232262,2.30554041 45.7519703,1.04617201 C45.5571163,0.742059162 44.956491,0.526066927 44.558053,0.552450344 C43.9464278,0.592729026 43.5733069,1.16243493 43.5488628,1.71085821 C43.463134,3.61873098 44.0387914,8.60502077 43.922333,10.8043424 C43.8060491,13.0036639 43.16125,15.0263925 42.1529328,15.738393 C41.4222303,16.2532214 40.571228,16.3751128 39.9398731,15.9635315 C39.7045118,15.8101559 39.4888803,15.6205471 39.2896613,15.4231991 C38.0746173,14.2197635 37.5497686,14.106139 35.9891905,14.8033647 C34.6131649,15.4180983 32.2607741,14.3849237 31.1312843,12.1549974 C30.4061689,10.7234332 30.0967771,7.99521208 29.4821838,7.36042708 C28.8674158,6.72564209 27.6686097,7.04382609 27.141142,7.90867447 C26.6136742,8.77334697 27.0362071,10.0958597 27.836226,10.8210519 C28.636245,11.5464199 29.2817425,12.4861972 30.1018405,13.8236605 C30.9219384,15.1611238 30.4234544,16.6560082 29.8352257,17.8678865 C29.2997264,18.971065 27.9113042,18.2847444 26.8521783,17.6821472 C25.8218615,17.0960836 24.8591151,17.3440877 24.4503756,18.4105054 C24.0983813,19.3286483 24.6405154,20.5252241 22.9800659,20.1384433 C20.0050501,19.4457906 19.0276372,18.0033213 16.9462262,16.191836 C15.6985319,15.1060704 14.1625724,13.2694329 13.3405539,14.2392873 C12.5852327,15.1305191 14.2170478,16.5441425 15.3509026,17.2739078 C17.1356676,18.4228176 18.3402356,19.887449 18.9698445,20.8481572 C19.5994535,21.8088653 19.8791633,22.7584924 19.1949044,23.2796528 C18.7549115,23.6148981 17.893084,23.950671 17.1304296,23.494062 C16.1362551,22.8988522 14.9306395,23.1818583 14.604486,23.7111096 C14.2334602,24.3126515 14.884545,25.2751185 15.9277822,25.6337571 C17.048542,26.0191309 17.87737,27.2415625 17.9056552,28.5208064 C17.9149091,28.9359055 17.8555449,29.6276787 17.2179044,29.7775365 L17.2095236,29.7954772 C15.168969,30.2696751 17.8216725,31.9478363 14.7279285,32.2734076 C13.2497617,32.3643425 12.755468,32.2000617 11.0543366,31.3531541 C9.35303058,30.5062464 8.24920702,32.1061368 8.44231503,32.7630838 C8.72499303,33.7250232 10.2970948,33.8838514 11.3848551,33.5867741 C12.7961499,33.2012244 15.1316045,34.6866108 15.5241062,35.4946469 C15.9166078,36.302683 15.3089985,37.467247 14.4440282,38.4859986 C13.579058,39.5047503 12.5941373,39.6994599 11.5095198,39.8238137 C10.1521765,39.9794759 8.57536051,39.6966456 6.84576922,39.5976199 C5.11600333,39.4984182 0.95405424,38.0158461 0.0782587695,39.7706951 C-0.463176987,40.8554053 1.91627689,41.563888 3.78240568,41.606805 C6.33279333,41.6655521 8.80007119,41.119943 10.3988868,41.7589494 C11.308904,42.1226887 12.0989706,42.5427127 12.7306748,43.2983337 C13.4643456,44.1760221 13.6303905,47.4329669 12.9695281,48.3708094 C12.3931723,49.1885194 12.3524904,49.8581305 13.4577107,50.177018 C14.5915656,50.5039965 15.3309981,51.6530822 14.9500201,52.7249525 C14.7364839,53.3254391 14.0152097,53.7651627 13.4852976,54.2361946 C12.7172306,54.9189974 11.7200878,55.040537 10.7638016,55.2913553 C9.86024466,55.5284543 7.38161777,57.551007 10.2331911,58.2689877 C11.2390638,58.4455807 11.971687,57.8735882 12.65193,57.2284258 C13.9518298,55.9954408 16.4416311,55.3455293 18.0243835,56.2212828 C18.6505004,56.567785 18.7351816,57.2256115 18.2293643,57.8137858 C17.5220582,58.6362449 17.2980459,59.6071546 17.8696876,60.2725443 C19.1818094,61.5699049 15.17508,63.6745979 13.7793246,64.4427071 C12.185747,65.3200437 10.6131215,66.2888427 9.54753539,67.8190808 C8.49469514,69.2117735 9.16306537,70.5954957 9.97862371,70.5152901 C10.9909567,70.4157367 11.6509461,69.777258 12.3503952,69.172726 C13.777404,67.9395651 14.5170112,66.9195822 16.8054983,65.1304348 C19.0938108,63.3412874 20.9688442,62.7568068 22.9158129,63.5518271 C24.8626071,64.3468474 23.6166588,66.5470484 24.7646563,68.3062946 C25.0441915,68.7347613 25.2767592,69.3280364 26.2379342,69.1561924 C27.1989347,68.9845243 27.8755111,67.028106 29.5317703,68.3026009 C31.634308,70.0066178 29.3426781,74.1751976 28.6105787,75.5058012 C27.8620669,76.8663061 26.5172948,78.7988034 26.140158,79.7559937 C25.7628466,80.7131841 24.3960749,83.4744724 26.0603657,83.9553541 C27.4133439,84.3463564 29.4448193,78.1181112 30.1552682,76.3375824 C30.8657171,74.5572295 32.8201937,72.0057772 34.3070905,71.8341091 C34.8722719,71.5945477 35.2260122,71.990299 35.4278503,72.4878902 C36.1039029,74.5201168 36.6797349,73.8260571 37.0647288,72.9397502 C37.2915346,72.5944792 37.4956425,71.8951428 37.8106215,71.2768914 C38.6085452,70.2324599 39.6180846,71.4024765 39.7832566,72.2159651 C40.2740582,73.5966972 40.248392,74.1111739 39.8859216,75.9574853 C39.5234512,77.8037968 41.3827706,78.420817 41.9704754,78.0597159 C42.8309061,77.5308164 42.4122144,76.0653056 41.9725706,75.0393424 C41.5327523,74.0133793 41.9016829,72.3459474 42.5824497,71.7542553 C43.263042,71.1627391 44.5512435,70.474132 45.3643575,70.5159937 C46.755224,70.5877566 47.5885916,71.379259 48.0048389,72.376904 C48.5258464,73.6251913 49.2986277,76.1729499 49.5724011,77.8382711 C49.846349,79.5034165 49.6043529,84.0779491 51.5525439,84.4364118 C52.7569373,84.6578566 52.6844781,82.0691158 52.2186443,80.2834862 C51.5818768,77.8426684 50.6034163,75.7728014 50.6420029,74.0700157 C50.690018,71.9447436 51.8598405,71.1126107 52.1004399,70.900488 C53.0010286,70.1063472 53.9580132,71.5787177 55.0433291,70.7529167 C55.6113042,70.3209323 55.9048074,69.164811 56.2314847,68.4904508 C56.9112039,67.0873808 57.8421731,66.8173905 59.3749898,67.0513234 C62.0140744,66.991521 63.5739542,70.4630509 64.2021663,71.7262889 C64.6489687,72.6247322 65.1493733,73.5650371 65.8633143,74.2427392 C69.0654851,77.3744507 68.932265,73.908901 68.8433934,73.3569599 C68.6576186,72.2022457 67.9648043,71.3256128 67.1661822,70.5344621 C66.3572587,69.732758 65.197563,68.922963 63.9317103,67.5285115 C62.665683,66.1342359 62.0285663,63.4095325 62.484797,62.3684429 C62.9408532,61.3271774 63.5673193,60.8192087 64.5714461,60.9391653 C65.5755728,61.0591219 67.3035927,60.1232142 67.3578934,58.747407 C67.3790201,58.2162209 67.2842121,57.6794063 67.2611648,57.1475166 C67.1541348,54.6613194 71.8814399,56.2536465 72.884519,56.9375046 C74.9573747,58.3509522 76.2663537,57.5232165 76.3567967,56.8147338 C76.4472397,56.1060752 75.9040579,55.484482 75.2803854,55.1991893 C73.6546813,54.4558805 71.1119761,54.3097164 69.8414091,53.0434883 C69.1417855,52.3462625 68.8744723,51.7932661 68.7431728,50.7458445 C68.6066353,49.6551541 69.386226,48.8967188 70.2866401,48.4316671 C70.8015366,48.1657223 70.9658355,47.7766548 70.8279013,47.2264727 C70.6115714,46.3628555 71.1523087,45.3548331 72.0555165,45.1734911 C72.9559306,44.9926767 73.7568225,44.9631273 74.735283,45.1615306 C75.8946295,45.2966137 78.9922147,45.8724757 79.810392,45.8912959 C80.628744,45.9101161 81.967405,45.6939479 82.2523528,45.2941512 C82.6247754,44.7719355 81.4678734,43.9315357 80.7923445,43.7308459 Z" id="Combined-Shape"></path>
            </g>
        </g>
    </g>
</svg>