<svg width="284px" height="87px" viewBox="0 0 284 87" version="1.1" xmlns="http://www.w3.org/2000/svg" xmlns:xlink="http://www.w3.org/1999/xlink">
    <g stroke="none" stroke-width="1" fill="none" fill-rule="evenodd">
        <g id="fromscratch-logo" fill="#303030">
            <g>
                <path d="M105.788698,15.887913 C100.375365,15.887913 96.653698,18.5945797 96.653698,22.8575797 L96.653698,26.037913 L95.1988646,26.037913 L95.1988646,30.2670797 L96.653698,30.2670797 L96.653698,42.0410797 L101.288865,42.0410797 L101.288865,30.300913 L104.875198,30.300913 L104.875198,26.037913 L101.288865,26.037913 L101.288865,23.4665797 C101.288865,21.2335797 102.777531,20.1170797 105.788698,20.1170797 L105.788698,15.887913 Z M117.630365,21.977913 C115.701865,21.977913 114.314698,22.4515797 113.130531,23.2297464 L113.130531,22.2147464 L108.495365,22.2147464 L108.495365,42.0410797 L113.130531,42.0410797 L113.130531,30.0302464 C113.130531,27.3912464 114.619198,26.1055797 117.630365,26.1055797 L117.630365,21.977913 Z M127.137531,42.3455797 C132.381698,42.3455797 134.885365,39.943413 134.885365,34.563913 L134.885365,29.7595797 C134.885365,24.3800797 132.381698,21.977913 127.137531,21.977913 C121.893365,21.977913 119.389698,24.515413 119.389698,29.7595797 L119.389698,34.563913 C119.389698,39.943413 121.893365,42.3455797 127.137531,42.3455797 Z M127.137531,38.217913 C124.701531,38.217913 124.058698,36.796913 124.058698,34.3270797 L124.058698,29.996413 C124.058698,27.5265797 124.701531,26.1055797 127.137531,26.1055797 C129.573531,26.1055797 130.216365,27.5265797 130.216365,29.996413 L130.216365,34.3270797 C130.216365,36.796913 129.573531,38.217913 127.137531,38.217913 Z M139.689698,42.0072464 L144.324865,42.0072464 L144.324865,29.5565797 C144.324865,26.9852464 145.745865,26.1055797 147.539031,26.1055797 C149.467531,26.1055797 150.516365,27.154413 150.516365,29.7257464 L150.516365,42.0072464 L155.151531,42.0072464 L155.151531,29.285913 C155.219198,26.849913 156.538698,26.1055797 158.298031,26.1055797 C160.226531,26.1055797 161.275365,27.154413 161.275365,29.7257464 L161.275365,42.0072464 L165.910531,42.0072464 L165.910531,28.778413 C165.910531,24.312413 163.440698,21.977913 159.313031,21.977913 C156.944698,21.977913 155.219198,22.5192464 153.696698,24.007913 C152.546365,22.6545797 150.787031,21.977913 148.554031,21.977913 C146.151865,21.977913 144.426365,22.5192464 142.870031,24.0755797 C141.990365,22.3162464 139.622031,21.977913 137.219865,21.977913 L137.219865,26.4100797 C138.776198,26.5115797 139.655865,26.7822464 139.655865,28.2370797 L139.689698,42.0072464 Z M183.943698,35.3082464 C183.943698,27.560413 173.218531,32.3647464 173.218531,28.2032464 C173.218531,26.7822464 174.436531,26.1055797 176.195865,26.1055797 C178.225865,26.1055797 179.240865,27.0190797 179.240865,28.8122464 L183.943698,28.8122464 C183.943698,24.819913 180.898698,21.977913 176.128198,21.977913 C171.865198,21.977913 168.515698,24.2785797 168.515698,28.778413 C168.515698,36.8645797 179.240865,32.2970797 179.240865,36.0187464 C179.240865,36.999913 178.462698,37.9472464 176.601865,37.9472464 C174.368865,37.9472464 173.387698,37.0675797 173.286198,35.680413 L168.583365,35.680413 C168.583365,39.537413 171.493031,42.1087464 176.229698,42.1087464 C180.526531,42.1087464 183.943698,39.6727464 183.943698,35.3082464 Z M202.044531,29.7595797 C202.044531,24.3800797 199.540865,21.977913 194.296698,21.977913 C189.052531,21.977913 186.548865,24.616913 186.548865,29.7595797 L186.548865,34.563913 C186.548865,39.943413 189.052531,42.3455797 194.296698,42.3455797 C199.540865,42.3455797 202.044531,39.943413 202.044531,34.563913 L197.544698,34.563913 C197.510865,36.8307464 196.732698,38.217913 194.296698,38.217913 C191.860698,38.217913 191.217865,36.796913 191.217865,34.3270797 L191.217865,29.996413 C191.217865,27.5265797 191.860698,26.1055797 194.432031,26.1055797 C196.732698,26.1055797 197.544698,27.4927464 197.544698,29.7595797 L202.044531,29.7595797 Z M214.224531,21.977913 C212.296031,21.977913 210.908865,22.4515797 209.724698,23.2297464 L209.724698,22.2147464 L205.089531,22.2147464 L205.089531,42.0410797 L209.724698,42.0410797 L209.724698,30.0302464 C209.724698,27.3912464 211.213365,26.1055797 214.224531,26.1055797 L214.224531,21.977913 Z M227.487198,39.7065797 C228.434531,41.8380797 230.701365,42.1087464 233.103531,42.1087464 L233.103531,37.6765797 C231.547198,37.5750797 231.073531,37.304413 231.073531,35.8495797 L231.073531,22.282413 L223.697865,22.282413 C219.773198,22.282413 215.983865,24.5830797 215.983865,29.0490797 L215.983865,35.3082464 C215.983865,39.7742464 218.453698,42.1087464 222.615198,42.1087464 C225.220365,42.1087464 226.506031,40.7892464 227.487198,39.7065797 Z M223.494865,37.9810797 C221.566365,37.9810797 220.619031,36.8645797 220.619031,34.056413 L220.619031,29.6580797 C220.619031,27.5942464 221.634031,26.4100797 223.697865,26.4100797 L226.438365,26.4100797 L226.438365,33.954913 C226.438365,36.492413 225.863198,37.9810797 223.494865,37.9810797 Z M237.028198,21.977913 L235.302698,21.977913 L235.302698,26.2070797 L237.028198,26.2070797 L237.028198,34.6992464 C237.028198,40.4170797 238.618365,42.0072464 243.997865,42.0072464 L243.997865,37.5412464 C242.069365,37.5412464 241.663365,36.8307464 241.663365,34.6315797 L241.663365,26.2070797 L245.046698,26.2070797 L245.046698,21.977913 L241.663365,21.977913 L241.663365,18.7637464 L237.028198,18.7637464 L237.028198,21.977913 Z M263.079865,29.7595797 C263.079865,24.3800797 260.576198,21.977913 255.332031,21.977913 C250.087865,21.977913 247.584198,24.616913 247.584198,29.7595797 L247.584198,34.563913 C247.584198,39.943413 250.087865,42.3455797 255.332031,42.3455797 C260.576198,42.3455797 263.079865,39.943413 263.079865,34.563913 L258.580031,34.563913 C258.546198,36.8307464 257.768031,38.217913 255.332031,38.217913 C252.896031,38.217913 252.253198,36.796913 252.253198,34.3270797 L252.253198,29.996413 C252.253198,27.5265797 252.896031,26.1055797 255.467365,26.1055797 C257.768031,26.1055797 258.580031,27.4927464 258.580031,29.7595797 L263.079865,29.7595797 Z M265.955698,42.0072464 L270.590865,42.0072464 L270.590865,29.285913 C270.590865,27.458913 271.064531,26.0717464 273.669698,26.0717464 C276.274865,26.0717464 276.748531,27.458913 276.748531,29.285913 L276.748531,42.0072464 L281.383698,42.0072464 L281.383698,28.7107464 C281.383698,24.1770797 279.387531,21.9102464 274.244865,21.9102464 C272.790031,21.9102464 271.639698,22.1132464 270.624698,22.5530797 L270.624698,15.9555797 L265.955698,15.9555797 L265.955698,42.0072464 Z" id="fromscratch"></path>
                <path d="M107.391163,61.8533333 C107.391163,65.4396667 106.071663,66.2178333 103.19583,66.2178333 C100.319996,66.2178333 99.0004965,65.3381667 99.0004965,61.7518333 L99.0004965,56.1355 C99.0004965,52.5491667 100.319996,51.9063333 103.19583,51.9063333 C106.071663,51.9063333 107.391163,52.786 107.391163,56.3723333 L110.60533,56.3723333 C110.60533,51.1281667 107.76333,48.929 103.19583,48.929 C98.6283298,48.929 95.7863298,50.8913333 95.7863298,56.1355 L95.7863298,61.7518333 C95.7863298,67.1313333 97.8501631,69.2966667 103.19583,69.2966667 C108.541496,69.2966667 110.60533,67.2328333 110.60533,61.8533333 L107.391163,61.8533333 Z M120.721496,66.2178333 C117.845663,66.2178333 116.526163,65.3381667 116.526163,61.7518333 L116.526163,56.1016667 C116.526163,52.5153333 117.845663,51.974 120.721496,51.974 C123.59733,51.974 124.91683,52.5153333 124.91683,56.1016667 L124.91683,61.7518333 C124.91683,65.3381667 123.59733,66.2178333 120.721496,66.2178333 Z M120.721496,69.2966667 C126.067163,69.2966667 128.130996,67.1313333 128.130996,61.7518333 L128.130996,56.1016667 C128.130996,50.8575 125.288996,48.9966667 120.721496,48.9966667 C116.153996,48.9966667 113.311996,50.8575 113.311996,56.1016667 L113.311996,61.7518333 C113.311996,67.1313333 115.37583,69.2966667 120.721496,69.2966667 Z M140.818496,48.929 C138.247163,48.929 136.420163,49.538 135.06683,51.3311667 C134.35633,49.4365 133.03683,48.9966667 130.49933,48.9966667 L130.49933,52.1093333 C132.42783,52.2446667 132.799996,52.4138333 132.799996,54.3761667 L132.799996,68.9583333 L136.047996,68.9583333 L136.047996,56.0678333 C136.047996,53.0566667 137.265996,51.9401667 140.34483,51.9401667 C143.220663,51.9401667 144.269496,52.4815 144.269496,56.034 L144.269496,68.9583333 L147.517496,68.9583333 L147.517496,57.049 C147.517496,52.8536667 148.735496,51.9401667 151.81433,51.9401667 C154.723996,51.9401667 155.738996,52.4815 155.738996,56.1016667 L155.738996,68.9583333 L158.986996,68.9583333 L158.986996,55.7295 C158.986996,50.3838333 156.618663,48.929 152.287996,48.929 C149.47983,48.929 147.517496,49.6395 146.367163,51.2973333 C145.250663,49.741 143.38983,48.929 140.818496,48.929 Z M166.700996,56.4738333 C166.700996,52.8536667 167.918996,51.9401667 170.99783,51.9401667 C173.63683,51.9401667 174.95633,52.786 174.95633,56.034 L174.95633,61.0413333 C174.95633,64.6276667 173.63683,65.8456667 170.760996,65.8456667 C167.885163,65.8456667 166.700996,64.966 166.700996,61.3796667 L166.700996,56.4738333 Z M166.700996,75.0483333 L166.700996,68.2478333 C167.74983,68.7215 169.06933,68.9245 170.760996,68.9245 C176.106663,68.9245 178.170496,66.4208333 178.170496,61.0413333 L178.170496,56.0678333 C178.170496,50.7221667 175.429996,48.929 171.471496,48.929 C168.900163,48.929 167.073163,49.538 165.71983,51.3311667 C165.00933,49.4365 163.68983,48.9966667 161.15233,48.9966667 L161.15233,52.1093333 C163.08083,52.2446667 163.452996,52.4138333 163.452996,54.3761667 L163.452996,75.0483333 L166.700996,75.0483333 Z M192.71883,66.6576667 C193.293996,68.62 195.087163,69.0598333 197.252496,69.0598333 L197.252496,65.4058333 C195.628496,65.3043333 195.222496,65.0336667 195.222496,63.4435 L195.222496,49.3688333 L188.35433,49.3688333 C184.19283,49.3688333 181.215496,51.365 181.215496,55.9325 L181.215496,62.2593333 C181.215496,66.7253333 183.042496,69.0598333 187.609996,69.0598333 C190.48583,69.0598333 191.70383,67.9095 192.71883,66.6576667 Z M192.00833,60.8721667 C192.00833,64.966 190.38433,66.0486667 187.609996,66.0486667 C185.30933,66.0486667 184.463496,64.9998333 184.463496,61.8871667 L184.463496,56.5753333 C184.463496,53.6318333 185.41083,52.4138333 188.218996,52.4138333 L192.00833,52.4138333 L192.00833,60.8721667 Z M212.91733,68.9583333 L216.16533,68.9583333 L216.16533,55.7295 C216.16533,50.3838333 214.270663,48.929 209.46633,48.929 C206.894996,48.929 205.067996,49.538 203.714663,51.3311667 C203.004163,49.4365 201.684663,48.9966667 199.147163,48.9966667 L199.147163,52.1093333 C201.075663,52.2446667 201.44783,52.4138333 201.44783,54.3761667 L201.44783,68.9583333 L204.69583,68.9583333 L204.69583,56.0678333 C204.69583,53.0566667 205.91383,51.9401667 208.992663,51.9401667 C211.90233,51.9401667 212.91733,52.9213333 212.91733,56.1016667 L212.91733,68.9583333 Z M233.860163,49.2335 L230.645996,49.2335 L230.645996,59.3835 C230.645996,62.9698333 229.326496,63.8495 226.450663,63.8495 C223.57483,63.8495 222.25533,62.9698333 222.25533,59.3835 L222.221496,49.2335 L219.041163,49.2335 L219.041163,59.3835 C219.041163,64.763 221.104996,66.9283333 226.450663,66.9283333 C228.176163,66.9283333 229.56333,66.6915 230.645996,66.2178333 L230.645996,67.605 C230.645996,71.1913333 229.597163,72.071 226.450663,72.071 L221.84933,72.071 L221.84933,75.1498333 L226.450663,75.1498333 C231.79633,75.1498333 233.860163,73.492 233.860163,67.605 L233.860163,49.2335 Z" id="company" opacity="0.599521922"></path>
                <path d="M40.8898357,44.686309 L37.2276606,44.686309 L37.2276606,56.5368165 L32.5612058,56.5368165 L32.5612058,44.6521576 L31.0965521,44.6521576 L31.0965521,40.3832428 L32.5612058,40.3832428 L32.5612058,37.1730189 C32.5612058,32.8699527 36.3079944,30.1378472 41.7578686,30.1378472 L41.7578686,34.4067621 C38.7263761,34.4067621 37.2276606,35.5337556 37.2276606,37.7877426 L37.2276606,40.3832428 L41.2373734,40.3832428 C42.3279397,37.6668108 45.0912241,36.2850846 48.4016955,36.2850846 C53.2043972,36.2850846 56.2699515,39.1537953 56.2699515,43.1836509 L51.5353732,43.1836509 C51.5353732,41.3736311 50.5135218,40.4515455 48.469819,40.4515455 C46.6986098,40.4515455 45.4723881,41.1345718 45.4723881,42.5689272 C45.4723881,46.7695394 56.2699515,41.9200522 56.2699515,49.7407041 C56.2699515,54.1462242 52.8297184,56.6051192 48.5038807,56.6051192 C43.7352407,56.6051192 40.8059333,54.009619 40.8059333,50.1163686 L45.5405116,50.1163686 C45.6426967,51.5165727 46.6304864,52.404507 48.8785595,52.404507 C50.7519538,52.404507 51.5353732,51.4482701 51.5353732,50.4578818 C51.5353732,46.9648325 42.1999315,50.7058526 40.8898357,44.686309 Z M82.8340283,44.759807 C82.0879036,44.5385525 80.0987149,44.4798634 78.7452002,44.7427043 C77.3915065,45.0055452 76.5479989,44.9304735 75.6919604,44.6978773 C74.6953969,44.4269352 72.4065411,43.3620694 73.0024742,42.5134174 C73.5985864,41.6649453 75.7066394,40.6848728 73.437654,39.6104656 C72.4736708,39.0325757 71.5694779,38.405358 71.7841141,37.0267035 C71.9650959,35.8653428 72.7923134,34.7963364 73.6376111,34.3417656 C74.9021565,33.5429813 77.1541357,34.0711835 78.3608601,32.3996234 C78.9992192,31.6303637 76.6691905,30.7743305 74.9120022,31.9880794 C73.154635,33.2018282 72.4563066,33.14908 71.0218782,33.0275611 C70.3036794,32.9665316 69.6737339,32.4539919 69.5820794,31.7704255 C69.4852335,31.0495933 69.7994007,30.5046485 70.5455255,30.1964405 C70.806884,30.0884237 71.2343662,29.8606883 71.3349713,29.3224045 C71.4355764,28.7843008 70.8256803,28.4159634 70.0598642,28.3399916 C69.294048,28.2641998 68.7740163,28.3878791 68.1388793,28.2764417 C66.8335191,28.0476261 66.1230178,26.0988228 66.8548216,24.9806688 C67.8560393,23.4504307 68.7460903,21.7599676 72.0855714,19.4930548 C75.4250525,17.226142 75.6479233,15.2141489 74.7090019,15.1529394 C73.239487,15.0571645 71.1547056,17.926451 69.5380423,19.6702024 C67.921379,21.4139537 66.5116543,22.1635904 65.2510472,22.7866674 C63.9906191,23.4099244 62.7559688,22.7812665 62.6415797,21.4353771 C62.6073883,21.0328344 62.617771,20.6110288 62.4942523,20.2340501 C62.0678441,18.9333477 61.4275158,18.652324 60.0195813,19.0577471 C58.1378002,19.6309563 57.6299413,19.2842223 57.0744651,18.1846112 C56.33747,16.7256641 56.6335569,15.5176761 57.1858109,14.1294801 C57.4546879,13.4534749 58.133683,12.5389326 57.4355336,11.7851553 C56.8014708,11.1005087 55.7649875,11.532756 55.4257585,12.117847 C54.9610416,12.9196918 55.092795,13.8097503 54.9417083,14.7224924 C54.7179425,16.0745028 53.9881078,17.1073235 52.6442598,17.7781079 C51.4826467,18.3579782 49.9323971,18.0668729 49.0765376,17.0945415 C46.5007245,14.2742226 46.4864035,10.6324359 46.5402863,9.44209061 C46.6460827,7.1069472 47.8014304,2.35978842 46.9081573,1.07078782 C46.7083792,0.759519378 46.0925756,0.538444973 45.6840687,0.565449175 C45.0569874,0.606675591 44.6744373,1.18978634 44.6493756,1.7511137 C44.5614804,3.7038776 45.1516851,8.80749185 45.0322837,11.0585622 C44.9130612,13.3096325 44.2519675,15.3799547 43.2181694,16.1087081 C42.4690014,16.6356501 41.5964937,16.7604095 40.949184,16.339144 C40.7078749,16.1821595 40.4867943,15.9880893 40.2825408,15.7860979 C39.0367918,14.5543462 38.4986797,14.4380481 36.8986646,15.1516792 C35.4878658,15.7808771 33.0760283,14.7233925 31.9179954,12.4409973 C31.1745559,10.9757493 30.8573454,8.18333472 30.2272209,7.5336136 C29.5969173,6.88389249 28.3678164,7.20956317 27.8270192,8.09476093 C27.286222,8.97977866 27.7194326,10.3334093 28.5396686,11.0756648 C29.3599046,11.8181004 30.0217144,12.7799901 30.8625368,14.1489231 C31.7033593,15.5178562 31.1922781,17.0479143 30.5891845,18.2883073 C30.0401527,19.417443 28.616644,18.7149737 27.5307532,18.0981977 C26.4743996,17.4983444 25.4873238,17.7521839 25.0682551,18.8436937 C24.7073656,19.78344 25.2631999,21.0081706 23.5607896,20.612289 C20.5105929,19.9033387 19.5084801,18.4269289 17.3744702,16.5728203 C16.0952457,15.4615074 14.5204714,13.5816548 13.6776798,14.5743293 C12.903271,15.4865313 14.5763233,16.9334165 15.7388315,17.6803527 C17.5686989,18.8562957 18.8037072,20.355389 19.4492269,21.338702 C20.0947465,22.3220151 20.3815248,23.2939863 19.6799742,23.8274093 C19.2288623,24.1705427 18.3452558,24.5142162 17.5633285,24.0468635 C16.5440305,23.4376487 15.3079481,23.7273138 14.9735524,24.2690181 C14.5931505,24.8847139 15.2606887,25.8698272 16.3302893,26.2369043 C17.4793716,26.6313457 18.3291447,27.8825404 18.3581447,29.1918842 C18.3676324,29.6167503 18.3067681,30.3248005 17.6530139,30.4781844 L17.6444213,30.4965472 C15.5523003,30.9819028 18.2720396,32.6995501 15.1001144,33.0327819 C13.5845932,33.1258564 13.0778084,32.9577103 11.3336881,32.0908754 C9.58938875,31.2240404 8.45767073,32.8615753 8.65565873,33.5339799 C8.94548022,34.5185532 10.5573102,34.6811185 11.672559,34.3770511 C13.1195183,33.9824297 15.5139916,35.5027663 15.9164121,36.329815 C16.3188325,37.1568638 15.6958685,38.3488293 14.8090398,39.3915515 C13.9222111,40.4342738 12.9124007,40.6335648 11.8003741,40.7608446 C10.4087297,40.9201694 8.79206638,40.6306844 7.018767,40.5293286 C5.24528861,40.4277928 0.978163914,38.9103366 0.080236428,40.7064762 C-0.47488182,41.8167089 1.96470266,42.5418618 3.87798994,42.5857886 C6.49282781,42.645918 9.02245567,42.0874711 10.6616746,42.7415129 C11.5946885,43.1138108 12.4047208,43.5437177 13.0523886,44.3171181 C13.8045998,45.2154579 13.9748408,48.5490367 13.2972779,49.5089461 C12.7063571,50.3458963 12.6646472,51.031263 13.7977973,51.3576538 C14.9603055,51.6923258 15.7184241,52.8684489 15.3278185,53.9655396 C15.108886,54.5801553 14.3693847,55.0302253 13.8260813,55.5123403 C13.0386046,56.2112091 12.0162633,56.3356085 11.035811,56.5923284 C10.1094205,56.8350062 7.56815684,58.9051483 10.4917916,59.6400227 C11.5230835,59.8207708 12.2742206,59.2353197 12.9716539,58.574977 C14.3044031,57.3129806 16.8571236,56.647777 18.4798733,57.5441365 C19.1218127,57.8987917 19.2086339,58.5720965 18.6900342,59.1741102 C17.9648539,60.0159212 17.7351807,61.0096759 18.3212681,61.6907219 C19.6665482,63.0186085 15.5585658,65.1728238 14.1275386,65.9590061 C12.4936901,66.8569859 10.8813231,67.8485802 9.78880885,69.4148239 C8.70936253,70.8402858 9.39462298,72.2565662 10.2307911,72.1744734 C11.2687065,72.0725775 11.9453743,71.4190758 12.662499,70.8003195 C14.1255695,69.5381431 14.8838671,68.4941606 17.230186,66.6629157 C19.5763259,64.8316707 21.4987428,64.2334376 23.4949129,65.0471642 C25.490904,65.8608908 24.2134697,68.1128613 25.3904779,69.9135015 C25.6770772,70.3520498 25.915522,70.9592843 26.9009867,70.7833969 C27.8862724,70.6076896 28.5799464,68.6052379 30.2780605,69.9097209 C32.4337309,71.6538324 30.0841898,75.9204964 29.3335897,77.2824083 C28.5661625,78.674925 27.187407,80.6528929 26.8007396,81.6326053 C26.4138933,82.6123178 25.0125822,85.4385776 26.7189309,85.9307742 C28.1060999,86.3309765 30.1889122,79.9561844 30.9173147,78.1337608 C31.6457172,76.3115172 33.6495849,73.7000308 35.1740566,73.5243235 C35.7535206,73.2791253 36.1162003,73.6841884 36.3231389,74.1934876 C37.0162759,76.2735313 37.6066596,75.5631408 38.0013825,74.6559796 C38.23392,74.3025846 38.4431858,73.5867932 38.7661246,72.9539947 C39.5842125,71.8849884 40.6192636,73.0825347 40.7886096,73.9151643 C41.2918142,75.3283842 41.2654993,75.8549662 40.8938691,77.7447203 C40.5222388,79.6344744 42.4285446,80.2660127 43.0311012,79.8964151 C43.9132755,79.3550709 43.4840032,77.8550775 43.0332493,76.804974 C42.5823164,75.7548706 42.9605702,74.048205 43.6585405,73.4425908 C44.3563319,72.8371565 45.6770872,72.1323468 46.5107492,72.1751935 C47.936764,72.2486449 48.7911914,73.058771 49.2179576,74.0798899 C49.7521314,75.3575488 50.5444414,77.9652546 50.8251332,79.6697599 C51.1060041,81.3740851 50.8578925,86.0562538 52.8553158,86.4231509 C54.0901451,86.6498061 54.0158548,84.0001538 53.538249,82.1725094 C52.8853899,79.6742606 51.882203,77.5556909 51.9217648,75.8128396 C51.9709932,73.6375611 53.170378,72.7858485 53.4170575,72.5687348 C54.3404048,71.7559083 55.3215731,73.2629228 56.4343158,72.4176913 C57.016644,71.9755424 57.3175643,70.7922183 57.6524969,70.1019909 C58.3493932,68.6659074 59.3038887,68.3895644 60.8754408,68.6290016 C63.5812171,68.5677921 65.1805162,72.1210051 65.8246037,73.4139663 C66.2826971,74.3335494 66.7957474,75.2959792 67.5277301,75.9896271 C70.8108223,79.195026 70.6742356,75.647934 70.5831182,75.083006 C70.3926487,73.9011221 69.6823265,73.0038625 68.8635226,72.1940965 C68.0341569,71.3735288 66.8451549,70.5446798 65.5473131,69.1174176 C64.2492923,67.6903356 63.5960752,64.9015215 64.0638352,63.8359357 C64.5314163,62.7701698 65.1737137,62.2502489 66.2032155,62.373028 C67.2327173,62.4958071 69.0044055,61.5378781 69.0600785,60.1296989 C69.081739,59.5860143 68.9845351,59.0365688 68.9609055,58.4921641 C68.8511707,55.9474681 73.6979384,57.5772617 74.7263661,58.2772106 C76.8516044,59.7239158 78.1936622,58.8767039 78.2863908,58.1515511 C78.3791194,57.4262182 77.822211,56.7899992 77.1827778,56.4979937 C75.5159909,55.7371953 72.9090296,55.5875921 71.6063545,54.2915704 C70.8890508,53.5779393 70.6149824,53.0119312 70.4803649,51.9398644 C70.340377,50.8235106 71.1396685,50.0472298 72.0628368,49.5712358 C72.5907451,49.2990334 72.759196,48.9008114 72.617776,48.3376838 C72.3959793,47.4537462 72.9503815,46.4220056 73.876414,46.2363968 C74.7995823,46.051328 75.6207133,46.0210833 76.6239003,46.2241549 C77.8125443,46.3624164 80.9884078,46.9518281 81.8272611,46.9710911 C82.6662935,46.9903541 84.0387835,46.7690997 84.3309322,46.359896 C84.7127662,45.8253928 83.5266283,44.9652189 82.8340283,44.759807 Z" id="Combined-Shape"></path>
            </g>
        </g>
    </g>
</svg>