<svg xmlns="http://www.w3.org/2000/svg" width="20" height="20" viewBox="0 0 20 20">
  <path fill="#FFFFFF" fill-rule="evenodd" d="M10.7225156,15.6469241 L13.5920364,11.5476088 C14.0731475,10.8603072 14.0741672,9.9457888 13.5945899,9.25741604 L10.722233,5.13450917 C10.348268,4.59772949 9.73541912,4.27777723 9.0812156,4.27777723 L8.67379256,4.27777723 C8.25849176,4.27777723 7.92182395,4.61444504 7.92182395,5.02974584 C7.92182395,5.18508692 7.96993286,5.33661578 8.05953906,5.46350778 L10.7312865,9.24698902 C11.2206068,9.93991918 11.2195693,10.8661545 10.7286979,11.5579868 L8.06219326,15.3161476 C7.82253246,15.6539246 7.90207133,16.1220304 8.2398483,16.3616912 C8.36665971,16.4516669 8.51830377,16.4999995 8.67379256,16.4999995 L9.08405177,16.4999995 C9.73667936,16.4999995 10.3482583,16.1815775 10.7225156,15.6469241 Z"/>
</svg>
