<?xml version="1.0" encoding="UTF-8"?>
<svg width="20px" height="20px" viewBox="0 0 20 20" version="1.1" xmlns="http://www.w3.org/2000/svg" xmlns:xlink="http://www.w3.org/1999/xlink">
    <g stroke="none" stroke-width="1" fill="none" fill-rule="evenodd">
        <path d="M16.7857169,2.94354756 C18.7169436,4.87904022 19.6825418,7.2311698 19.6825418,10 C19.6825418,12.7688302 18.7235576,15.1276804 16.8055589,17.0766131 C14.8875601,19.0255475 12.5661517,20 9.84126874,20 C7.1163901,20 4.79498167,19.0255475 2.87698425,17.0766131 C0.958985095,15.1276804 0,12.7688302 0,10 C0,7.2311698 0.958985095,4.87231956 2.87698425,2.92338559 C4.79498167,0.974451613 7.1163901,0 9.84126874,0 C12.5661517,0 14.8809462,0.981172272 16.7857169,2.94354756 Z M13.9682555,8.83064708 L11.1111117,11.8951621 L11.1111117,4.51612903 C11.1111117,4.24731146 11.0185187,4.01881784 10.8333359,3.83064379 C10.6481487,3.64247412 10.4232819,3.54838929 10.1587313,3.54838929 L9.52381055,3.54838929 C9.2592599,3.54838929 9.03439314,3.64247412 8.84920595,3.83064379 C8.66402309,4.01881784 8.57142734,4.24731146 8.57142734,4.51612903 L8.57142734,11.8951621 L5.71428633,8.83064708 C5.52909915,8.64247303 5.29762273,8.54838929 5.01983979,8.54838929 C4.74206117,8.54838929 4.51058475,8.64247303 4.32539756,8.83064708 L3.88888942,9.274193 C3.7037031,9.46236706 3.61111166,9.69086067 3.61111166,9.95967824 C3.61111166,10.2284958 3.7037031,10.4569894 3.88888942,10.6451591 L9.16666847,15.9677417 C9.35185565,16.1559149 9.57671809,16.2500002 9.84126874,16.2500002 C10.1058237,16.2500002 10.3306862,16.1559149 10.5158733,15.9677417 L15.7936541,10.6451591 C15.978837,10.4569894 16.0714284,10.2284958 16.0714284,9.95967824 C16.0714284,9.69086067 15.978837,9.46236706 15.7936541,9.274193 L15.3571442,8.83064708 C15.1719571,8.64247303 14.9404806,8.54838929 14.662702,8.54838929 C14.3849191,8.54838929 14.1534427,8.64247303 13.9682555,8.83064708 Z" id="Fill-1" fill="#FFFFFF" transform="translate(10.000000, 10.000000) rotate(-90.000000) translate(-10.000000, -10.000000) "></path>
    </g>
</svg>